<?xml version="1.0" ?><svg id="Flask" style="enable-background:new 0 0 32 32;" version="1.1" viewBox="0 0 32 32" xml:space="preserve" xmlns="http://www.w3.org/2000/svg" xmlns:xlink="http://www.w3.org/1999/xlink"><style type="text/css">
	.st0{fill:#20A56C;}
	.st1{fill:#B9F3F8;}
</style><g><path class="st0" d="M24.664,20.419H7.336l-4.037,5.604c-0.307,0.424-0.349,0.955-0.111,1.421c0.238,0.466,0.692,0.745,1.215,0.745   h23.193c0.523,0,0.978-0.279,1.216-0.745c0.237-0.466,0.197-0.997-0.11-1.42L24.664,20.419z"/><path class="st1" d="M29.855,26.002c-0.075-0.206-0.18-0.403-0.313-0.587l-3.599-4.997h0.001l-6.097-8.462   c-0.147-0.262-0.279-0.546-0.268-0.853V4.849h0.996c0.573,0,1.037-0.464,1.037-1.037s-0.464-1.037-1.037-1.037h-9.335   c-0.573,0-1.037,0.464-1.037,1.037s0.464,1.037,1.037,1.037h1.182v6.255c0,0.302-0.096,0.606-0.265,0.848l-6.1,8.466h0.001   l-3.598,4.996c-0.532,0.734-0.607,1.693-0.194,2.5c0.412,0.808,1.232,1.311,2.139,1.311h23.193c0.907,0,1.726-0.502,2.139-1.311   C30.043,27.311,30.082,26.626,29.855,26.002z M28.812,27.443c-0.238,0.466-0.693,0.745-1.216,0.745H4.403   c-0.523,0-0.977-0.279-1.215-0.745c-0.238-0.466-0.196-0.997,0.111-1.421l4.037-5.604h17.328l4.037,5.605   C29.008,26.447,29.049,26.977,28.812,27.443z"/></g></svg>